<svg xmlns="http://www.w3.org/2000/svg" width="2000" height="1200" viewBox="0 0 2000 1200"> <defs> <style> .prefix__cls-2{fill:#c9c9cf}.prefix__cls-3{fill:#ffdbac}.prefix__cls-4{fill:#c4c5f9}.prefix__cls-5{fill:#ccc}.prefix__cls-6{fill:#a2a2a4}.prefix__cls-7{fill:#080a7a}.prefix__cls-8{fill:#42210b}.prefix__cls-9{fill: #808080}.prefix__cls-12{fill:#a0c3f5}.prefix__cls-13{fill:#ffd67b}.prefix__cls-14{fill:#4bccef}.prefix__cls-15{fill:#f27575} </style> </defs> <g id="prefix__Group_296" data-name="Group 296" transform="translate(-1923.185 -1113.946)"> <g id="prefix__Group_294" data-name="Group 294" transform="translate(1923.185 1113.946)"> <path id="prefix__Path_2239" d="M3923.185 1113.946h-2000v1200h2000v-1200" data-name="Path 2239" transform="translate(-1923.185 -1113.946)" style="opacity:0"/> </g> <g id="prefix__Group_295" data-name="Group 295" transform="translate(1930.252 1172.024)"> <path id="prefix__Path_2240" d="M2002.649 1586.726v193.666c0 24.059 20.653 43.565 46.128 43.565s46.128-19.506 46.128-43.565v-88.23a13.18 13.18 0 1 1 26.359 0v88.23c0 24.059 20.652 43.565 46.128 43.565s46.128-19.506 46.128-43.565v-193.666z" class="prefix__cls-2" data-name="Path 2240" transform="translate(-1885.553 -906.085)"/> <path id="prefix__Path_2241" d="M2123.835 1434.436c21.616 17.948 43.445 35.625 65.771 52.688 14.333 10.953 28.942 21.628 44.3 31.111a249.989 249.989 0 0 0 42.283 20.858 144.442 144.442 0 0 0 31.558 8.06 325.121 325.121 0 0 0 42.548 3.2q2.4.021 4.8.025a32.721 32.721 0 0 0 22.45-9.3 35.32 35.32 0 0 0 9.3-22.45c-.367-8.213-3.066-16.728-9.3-22.45-6.217-5.711-13.841-9.283-22.45-9.3-12.758-.023-25.558-.3-38.22-1.994q4.218.565 8.439 1.134a144.475 144.475 0 0 1-28.8-6.886c-2.814-.994-5.6-2.08-8.347-3.234l7.584 3.2c-20.725-8.755-39.631-21.456-57.772-34.617-7.017-5.091-13.936-10.317-20.8-15.614l6.427 4.963c-18.6-14.378-36.8-29.273-54.881-44.291a32.649 32.649 0 0 0-44.9 0c-5.554 6.052-9.678 14-9.3 22.45.367 7.956 2.922 17.144 9.31 22.447z" class="prefix__cls-3" data-name="Path 2241" transform="translate(-1822.631 -1022.246)"/> <path id="prefix__Path_2242" d="M2213.507 1732.416h-205.419a10.257 10.257 0 0 1-10.256-10.258v-258.039a112.966 112.966 0 1 1 225.933 0v258.039a10.257 10.257 0 0 1-10.258 10.258z" class="prefix__cls-4" data-name="Path 2242" transform="translate(-1888.263 -1038.596)"/> <path id="prefix__Path_2243" d="M2096.315 1363.967v-12.45s69.5 8.1 86.631 25l67.03 66.116a11.681 11.681 0 0 1 .115 16.52l-44.8 45.417a11.683 11.683 0 0 1-16.521.114l-67.031-66.116c-17.132-16.898-42.325-57.468-25.424-74.601z" class="prefix__cls-4" data-name="Path 2243" transform="translate(-1836.012 -1038.39)"/> <path id="prefix__Path_2244" d="M2249.9 1900.924h-171.34v-52.717h118.622a52.718 52.718 0 0 1 52.718 52.717z" class="prefix__cls-5" data-name="Path 2244" transform="translate(-1842.853 -759.002)"/> <path id="prefix__Path_2245" d="M2094.906 1938.355h-92.256v-204.284a46.126 46.126 0 0 1 46.126-46.126 46.126 46.126 0 0 1 46.125 46.126z" class="prefix__cls-2" data-name="Path 2245" transform="translate(-1885.553 -849.15)"/> <path id="prefix__Path_2246" d="M2170.819 1938.355h-92.256v-204.284a46.125 46.125 0 0 1 46.125-46.126h.006a46.126 46.126 0 0 1 46.125 46.126z" class="prefix__cls-2" data-name="Path 2246" transform="translate(-1842.852 -849.15)"/> <path id="prefix__Path_2247" d="M2151.838 1831.337h-13.178a26.36 26.36 0 0 0-26.36 26.363h65.9a26.36 26.36 0 0 0-26.362-26.363z" class="prefix__cls-5" data-name="Path 2247" transform="translate(-1823.874 -768.492)"/> <path id="prefix__Path_2248" d="M2173.98 1900.924h-171.328v-52.717h118.611a52.716 52.716 0 0 1 52.717 52.717z" class="prefix__cls-6" data-name="Path 2248" transform="translate(-1885.552 -759.002)"/> <path id="prefix__Path_2249" d="M2062.75 1831.337h13.181a26.36 26.36 0 0 1 26.358 26.359h-65.9a26.36 26.36 0 0 1 26.361-26.359z" class="prefix__cls-6" data-name="Path 2249" transform="translate(-1866.573 -768.492)"/> <path id="prefix__Path_2250" d="M2087.955 1414.329h-15.143l-21.663-41.344h58.467z" class="prefix__cls-7" data-name="Path 2250" transform="translate(-1858.272 -1026.314)"/> <path id="prefix__Path_2251" d="M2080.383 1556.725a12.516 12.516 0 0 1-11.084-6.7l-18.15-34.637h58.468l-18.149 34.637a12.512 12.512 0 0 1-11.085 6.7z" class="prefix__cls-7" data-name="Path 2251" transform="translate(-1858.272 -946.216)"/> <path id="prefix__Path_2252" d="M2072.813 1399.445h15.142l21.663 181.152h-58.468z" class="prefix__cls-7" data-name="Path 2252" transform="translate(-1858.272 -1011.431)"/> <path id="prefix__Path_2253" d="M2018.746 1354.361a21.966 21.966 0 0 1-19.134-24.473l11.744-95.933 65.408 8.008-9.073 74.13a43.932 43.932 0 0 1-48.945 38.268z" class="prefix__cls-8" data-name="Path 2253" transform="translate(-1887.355 -1104.519)"/> <path id="prefix__Path_2254" d="M2127.792 1361.846a21.966 21.966 0 0 1-19.135-24.472l16.292-133.088 65.41 8.008-13.624 111.284a43.931 43.931 0 0 1-48.943 38.268z" class="prefix__cls-8" data-name="Path 2254" transform="translate(-1826.016 -1121.207)"/> <path id="prefix__Rectangle_739" d="M0 0H210.872V31.517H0z" class="prefix__cls-2" data-name="Rectangle 739" transform="translate(117.096 693.82)"/> <path id="prefix__Path_2255" d="M2036.9 1202.369a58.335 58.335 0 1 1 50.815 64.992 58.338 58.338 0 0 1-50.815-64.992z" class="prefix__cls-8" data-name="Path 2255" transform="translate(-1866.531 -1151.116)"/> <path id="prefix__Path_2256" d="M2089.888 1208.855a58.335 58.335 0 1 1 50.814 64.992 58.335 58.335 0 0 1-50.814-64.992z" class="prefix__cls-8" data-name="Path 2256" transform="translate(-1836.728 -1147.467)"/> <path id="prefix__Path_2257" d="M2054.948 1406.745l-10.552-62.2 79.739-2.43c0 .188-10.339 64.63-10.152 64.63l-29.378-16.1z" class="prefix__cls-3" data-name="Path 2257" transform="translate(-1862.071 -1043.679)"/> <path id="prefix__Path_2258" d="M2033.5 1385.847a272.7 272.7 0 0 0-40.286 23.174c-11.744 8.333-23.325 17.419-32.766 28.372a154.429 154.429 0 0 0-13.6 18.009 106.249 106.249 0 0 0-7.889 15.767 96.775 96.775 0 0 0-5.494 15.791 127.118 127.118 0 0 0-2.856 20.087 80.153 80.153 0 0 0 .1 11.955 161.838 161.838 0 0 0 2.869 20.158 132.714 132.714 0 0 0 7.586 23.624 299.529 299.529 0 0 0 14.286 30.089c4.184 7.55 8.656 14.936 13.187 22.28 8.175 13.253 16.813 26.375 23.466 40.488q1.083 2.3 2.075 4.635l-3.2-7.586a74.934 74.934 0 0 1 4.534 14.119 35.495 35.495 0 0 0 14.591 18.974 23.642 23.642 0 0 0 11.8 3.767 24.031 24.031 0 0 0 12.661-.567c7.683-2.486 15.1-7.247 18.973-14.591l3.2-7.583a31.965 31.965 0 0 0 0-16.881c-1.747-8.633-5.5-16.925-9.126-24.867a211.2 211.2 0 0 0-10.163-19.089c-8.281-14.092-17.308-27.731-25.378-41.949a245.031 245.031 0 0 1-12.739-25.372l3.2 7.584a123.213 123.213 0 0 1-8.984-31.248q.565 4.221 1.133 8.442a81.732 81.732 0 0 1-.1-21.174l-1.134 8.441a74.737 74.737 0 0 1 5.139-18.852l-3.2 7.583a87.749 87.749 0 0 1 11.311-19.136l-4.964 6.427a132.7 132.7 0 0 1 23.855-23.319q-3.214 2.48-6.427 4.964c14.3-11.015 30.127-19.906 46.38-27.684a30.578 30.578 0 0 0 15.158-31.635 23.621 23.621 0 0 0-3.768-11.8c-4.37-6.78-10.879-12.747-18.973-14.592l-8.442-1.133a31.6 31.6 0 0 0-16.015 4.328z" class="prefix__cls-3" data-name="Path 2258" transform="translate(-1926.175 -1021.518)"/> <path id="prefix__Path_2259" d="M2103.1 1376.944v-25.427s-69.589 8.1-86.725 25l-67.03 66.116a11.682 11.682 0 0 0-.115 16.52l44.8 45.417a11.685 11.685 0 0 0 16.522.114l67.03-66.116c17.127-16.898 25.518-37.248 25.518-61.624z" class="prefix__cls-4" data-name="Path 2259" transform="translate(-1917.496 -1038.39)"/> <path id="prefix__Path_2260" d="M2051.063 1732.284h-35.1v-374.191l35.1-6.706z" class="prefix__cls-9" data-name="Path 2260" transform="translate(-1878.063 -1038.464)"/> <path id="prefix__Path_2261" d="M2101.071 1732.284h35.1v-374.191l-35.1-6.706z" class="prefix__cls-9" data-name="Path 2261" transform="translate(-1830.191 -1038.464)"/> <path id="prefix__Path_2262" d="M2095.09 1389.767l-52.293 42.463-15.1-48.524c-7-18.519 5.762-39.036 25.537-40 .545-.025 1.1-.039 1.647-.039z" class="prefix__cls-2" data-name="Path 2262" transform="translate(-1872.555 -1042.804)"/> <path id="prefix__Path_2263" d="M2069.859 1389.767l52.294 42.463 15.1-48.524c7-18.519-5.764-39.036-25.538-40-.545-.025-1.1-.039-1.647-.039z" class="prefix__cls-2" data-name="Path 2263" transform="translate(-1847.748 -1042.804)"/> <path id="prefix__Path_2264" d="M2127.87 1297.317a26.358 26.358 0 1 1 22.96 29.367 26.356 26.356 0 0 1-22.96-29.367z" class="prefix__cls-3" data-name="Path 2264" transform="translate(-1815.229 -1081.904)"/> <path id="prefix__Path_2265" d="M2101.808 1441.88a105.437 105.437 0 0 1-91.842-117.467l14.414-117.734 193.1 23.639a16.333 16.333 0 0 1 14.227 18.2l-12.432 101.526a105.432 105.432 0 0 1-117.467 91.836z" class="prefix__cls-3" data-name="Path 2265" transform="translate(-1881.885 -1119.862)"/> <path id="prefix__Path_2266" d="M2063.505 1211.459l-14.414 117.741a105.453 105.453 0 0 0 72.448 113.2 105.4 105.4 0 0 1-111.693-118l14.414-117.737z" data-name="Path 2266" transform="translate(-1881.95 -1119.876)" style="opacity:.03"/> <path id="prefix__Path_2267" d="M2087.02 1288.153a13.18 13.18 0 1 1-11.479-14.683 13.178 13.178 0 0 1 11.479 14.683z" data-name="Path 2267" transform="translate(-1852.868 -1082.348)"/> <path id="prefix__Path_2268" d="M2145.626 1295.328a13.18 13.18 0 1 1-11.481-14.684 13.18 13.18 0 0 1 11.481 14.684z" data-name="Path 2268" transform="translate(-1819.902 -1078.312)"/> <path id="prefix__Path_2269" d="M2132.559 1322.227c-1.041.7-25.746 16.939-52.021-6.523-1.711-1.525-4.189-1.048-5.545 1.064a5.287 5.287 0 0 0 .644 6.589c12.165 10.861 24.086 14.293 34.1 14.447a48.8 48.8 0 0 0 26.5-7.435 5.376 5.376 0 0 0 1.639-6.445 3.528 3.528 0 0 0-5.317-1.697z" data-name="Path 2269" transform="translate(-1845.339 -1059.037)" style="opacity:.1"/> <path id="prefix__Path_2270" d="M2160.231 1278.108a86.68 86.68 0 0 0-40.646-4.283c-3.836.5-7.558-1.683-8.228-5.275s2.487-7.314 6.986-7.878a99.872 99.872 0 0 1 46.641 5.122c4.075 1.478 5.871 5.591 4.25 8.85a7.3 7.3 0 0 1-9.003 3.464z" class="prefix__cls-8" data-name="Path 2270" transform="translate(-1824.456 -1089.945)"/> <path id="prefix__Path_2271" d="M2101.767 1265.728a86.676 86.676 0 0 0-40.645-4.281c-3.833.5-7.558-1.684-8.228-5.275s2.489-7.314 6.986-7.878a99.88 99.88 0 0 1 46.642 5.122c4.075 1.477 5.87 5.591 4.248 8.848a7.3 7.3 0 0 1-9.003 3.464z" class="prefix__cls-8" data-name="Path 2271" transform="translate(-1857.342 -1096.907)"/> <path id="prefix__Path_2272" d="M2022.091 1327.032a21.965 21.965 0 0 1-19.133-24.472l11.745-95.933 65.878 4.167-9.543 77.97a43.934 43.934 0 0 1-48.947 38.268z" class="prefix__cls-8" data-name="Path 2272" transform="translate(-1885.473 -1119.891)"/> <path id="prefix__Path_2273" d="M2017.5 1310.361a26.359 26.359 0 1 1 6.4-52.327" class="prefix__cls-3" data-name="Path 2273" transform="translate(-1890.227 -1091.086)"/> <path id="prefix__Path_2274" d="M2075.375 1159.74l-27.684 19.17a81.431 81.431 0 0 0-34.469 57.048l-8.446 68.992s60.014-38.873 61.1-47.773 9.499-97.437 9.499-97.437z" class="prefix__cls-8" data-name="Path 2274" transform="translate(-1884.357 -1146.265)"/> <path id="prefix__Path_2275" d="M2039.2 1216.682a20.672 20.672 0 1 1 18.008 23.031 20.674 20.674 0 0 1-18.008-23.031z" class="prefix__cls-8" data-name="Path 2275" transform="translate(-1865.082 -1124.451)"/> <rect id="prefix__Rectangle_740" width="45.394" height="93.958" class="prefix__cls-2" data-name="Rectangle 740" rx="7.472" transform="rotate(-45 521.05 215.826)"/> <path id="prefix__Path_2276" d="M2192.609 1498.585l49.928-49.927a11.673 11.673 0 0 0 0-16.509l-15.587-15.591a11.678 11.678 0 0 0-16.511 0l-49.928 49.928a11.675 11.675 0 0 0 0 16.511l15.589 15.587a11.673 11.673 0 0 0 16.509.001z" class="prefix__cls-2" data-name="Path 2276" transform="translate(-1798.679 -1003.727)"/><path id="prefix__Path_2282" d="M2308.728 1621.591l-141.955-31.781a23.437 23.437 0 0 1-17.75-27.991l47.847-213.717a23.44 23.44 0 0 1 27.992-17.752l141.955 31.781a23.438 23.438 0 0 1 17.75 27.992l-47.849 213.717a23.433 23.433 0 0 1-27.99 17.751z" class="prefix__cls-9" data-name="Path 2282" transform="translate(-1803.54 -1050.617)"/> <path id="prefix__Path_2283" d="M2307.338 1488.376c-4.542 21.587-19.656 36.681-33.756 33.712s-21.852-22.872-17.31-44.459 19.658-36.68 33.76-33.713 21.849 22.875 17.306 44.46z" class="prefix__cls-3" data-name="Path 2283" transform="translate(-1743.621 -986.625)"/> <path id="prefix__Path_2284" d="M3041.665 2112.444h228.777a23.437 23.437 0 0 0 23.438-23.437V1499.75a28.511 28.511 0 0 0-28.51-28.511h-223.7z" class="prefix__cls-12" data-name="Path 2284" transform="translate(-1301.107 -971.047)"/> <path id="prefix__Path_2285" d="M3681.146 1471.239H2473.591l-193.24 641.2H3615.46l99.936-600.788a34.72 34.72 0 0 0-34.25-40.412z" class="prefix__cls-12" data-name="Path 2285" transform="translate(-1729.346 -971.047)"/> <path id="prefix__Path_2286" d="M2852.72 1402.129h-178.988a23.438 23.438 0 0 0-23.437 23.438v103.3h225.862v-103.3a23.437 23.437 0 0 0-23.437-23.438z" class="prefix__cls-6" data-name="Path 2286" transform="translate(-1521.253 -1009.921)"/> <path id="prefix__Path_2287" d="M3234.984 1402.129h-178.99a23.438 23.438 0 0 0-23.437 23.438v103.3h225.865v-103.3a23.438 23.438 0 0 0-23.438-23.438z" class="prefix__cls-6" data-name="Path 2287" transform="translate(-1306.23 -1009.921)"/> <path id="prefix__Path_2288" d="M2642.591 1390.129H2463.6a23.438 23.438 0 0 0-23.437 23.438v103.3h225.866v-103.3a23.438 23.438 0 0 0-23.438-23.438z" class="prefix__cls-9" data-name="Path 2288" transform="translate(-1639.452 -1016.671)"/> <path id="prefix__Path_2289" d="M2833.72 1390.129h-178.988a23.438 23.438 0 0 0-23.437 23.438v103.3h225.862v-103.3a23.437 23.437 0 0 0-23.437-23.438z" class="prefix__cls-9" data-name="Path 2289" transform="translate(-1531.94 -1016.671)"/> <path id="prefix__Path_2290" d="M3024.853 1390.129h-178.989a23.437 23.437 0 0 0-23.437 23.438v103.3h225.863v-103.3a23.438 23.438 0 0 0-23.437-23.438z" class="prefix__cls-9" data-name="Path 2290" transform="translate(-1424.429 -1016.671)"/> <path id="prefix__Path_2291" d="M3215.984 1390.129h-178.99a23.438 23.438 0 0 0-23.437 23.438v103.3h225.865v-103.3a23.438 23.438 0 0 0-23.438-23.438z" class="prefix__cls-9" data-name="Path 2291" transform="translate(-1316.918 -1016.671)"/> <rect id="prefix__Rectangle_741" width="1333.853" height="161.87" class="prefix__cls-4" data-name="Rectangle 741" rx="15" transform="translate(658.919 500.193)"/> <path id="prefix__Path_2292" d="M2516.2 1430.383h-52.7a11.293 11.293 0 0 1 0-22.586h52.7a11.293 11.293 0 0 1 0 22.586z" class="prefix__cls-13" data-name="Path 2292" transform="translate(-1632.675 -1006.733)"/> <path id="prefix__Path_2293" d="M2633.529 1447.3H2459.11a6.9 6.9 0 0 1 0-13.8h174.419a6.9 6.9 0 0 1 0 13.8z" class="prefix__cls-2" data-name="Path 2293" transform="translate(-1632.675 -992.278)"/> <path id="prefix__Path_2294" d="M2633.529 1463.36H2459.11a6.9 6.9 0 0 1 0-13.8h174.419a6.9 6.9 0 0 1 0 13.8z" class="prefix__cls-2" data-name="Path 2294" transform="translate(-1632.675 -983.243)"/> <path id="prefix__Path_2295" d="M2707.336 1430.383h-52.7a11.293 11.293 0 0 1 0-22.586h52.7a11.293 11.293 0 0 1 0 22.586z" class="prefix__cls-7" data-name="Path 2295" transform="translate(-1525.164 -1006.733)"/> <path id="prefix__Path_2296" d="M2824.66 1447.3h-174.417a6.9 6.9 0 0 1 0-13.8h174.417a6.9 6.9 0 1 1 0 13.8z" class="prefix__cls-2" data-name="Path 2296" transform="translate(-1525.164 -992.278)"/> <path id="prefix__Path_2297" d="M2824.66 1463.36h-174.417a6.9 6.9 0 0 1 0-13.8h174.417a6.9 6.9 0 1 1 0 13.8z" class="prefix__cls-2" data-name="Path 2297" transform="translate(-1525.164 -983.243)"/> <path id="prefix__Path_2298" d="M2898.466 1430.383h-52.7a11.293 11.293 0 1 1 0-22.586h52.7a11.293 11.293 0 1 1 0 22.586z" class="prefix__cls-14" data-name="Path 2298" transform="translate(-1417.653 -1006.733)"/> <path id="prefix__Path_2299" d="M3015.792 1447.3h-174.419a6.9 6.9 0 1 1 0-13.8h174.419a6.9 6.9 0 0 1 0 13.8z" class="prefix__cls-2" data-name="Path 2299" transform="translate(-1417.653 -992.278)"/> <path id="prefix__Path_2300" d="M3015.792 1463.36h-174.419a6.9 6.9 0 1 1 0-13.8h174.419a6.9 6.9 0 0 1 0 13.8z" class="prefix__cls-2" data-name="Path 2300" transform="translate(-1417.653 -983.243)"/> <path id="prefix__Path_2301" d="M3089.6 1430.383h-52.7a11.293 11.293 0 1 1 0-22.586h52.7a11.293 11.293 0 1 1 0 22.586z" class="prefix__cls-15" data-name="Path 2301" transform="translate(-1310.142 -1006.733)"/> <path id="prefix__Path_2302" d="M3206.922 1447.3H3032.5a6.9 6.9 0 0 1 0-13.8h174.417a6.9 6.9 0 0 1 0 13.8z" class="prefix__cls-2" data-name="Path 2302" transform="translate(-1310.142 -992.278)"/> <path id="prefix__Path_2303" d="M3206.922 1463.36H3032.5a6.9 6.9 0 0 1 0-13.8h174.417a6.9 6.9 0 0 1 0 13.8z" class="prefix__cls-2" data-name="Path 2303" transform="translate(-1310.142 -983.243)"/> <path id="prefix__Path_2304" d="M3184.389 1555.517H3005.4a23.436 23.436 0 0 0-23.437 23.438v103.3h225.863v-103.3a23.436 23.436 0 0 0-23.437-23.438z" class="prefix__cls-6" data-name="Path 2304" transform="translate(-1334.688 -923.64)"/> <path id="prefix__Path_2305" d="M2820.127 1574.517h-178.989a23.437 23.437 0 0 0-23.437 23.438v103.3h225.864v-103.3a23.437 23.437 0 0 0-23.438-23.438z" class="prefix__cls-5" data-name="Path 2305" transform="translate(-1539.587 -912.953)"/> <path id="prefix__Path_2306" d="M2802.127 1555.517h-178.988a23.437 23.437 0 0 0-23.437 23.438v103.3h225.864v-103.3a23.437 23.437 0 0 0-23.439-23.438z" class="prefix__cls-6" data-name="Path 2306" transform="translate(-1549.712 -923.64)"/> <rect id="prefix__Rectangle_742" width="1354.48" height="161.868" class="prefix__cls-4" data-name="Rectangle 742" rx="15" transform="translate(585.591 739.861)"/> <path id="prefix__Path_2307" d="M2560.4 1708.9h-178.986a23.438 23.438 0 0 0-23.437 23.438v103.3h225.863v-103.3a23.438 23.438 0 0 0-23.44-23.438z" class="prefix__cls-6" data-name="Path 2307" transform="translate(-1685.682 -837.361)"/> <path id="prefix__Path_2308" d="M2942.666 1708.9h-178.989a23.438 23.438 0 0 0-23.437 23.438v103.3h225.86v-103.3a23.438 23.438 0 0 0-23.434-23.438z" class="prefix__cls-6" data-name="Path 2308" transform="translate(-1470.659 -837.361)"/> <path id="prefix__Path_2309" d="M3133.8 1708.9h-178.992a23.438 23.438 0 0 0-23.437 23.438v103.3h225.864v-103.3a23.437 23.437 0 0 0-23.435-23.438z" class="prefix__cls-6" data-name="Path 2309" transform="translate(-1363.148 -837.361)"/> <path id="prefix__Path_2310" d="M3592.171 1778.014H2280.5a23.437 23.437 0 0 0-23.437 23.438v114.994a23.438 23.438 0 0 0 23.438 23.438h1324.622a23.438 23.438 0 0 0 23.438-23.437v-114.995a23.437 23.437 0 0 0-23.437-23.437z" class="prefix__cls-4" data-name="Path 2310" transform="translate(-1742.446 -798.486)"/> <path id="prefix__Path_2311" d="M2541.4 1696.9h-178.986a23.438 23.438 0 0 0-23.437 23.438v103.3h225.863v-103.3a23.438 23.438 0 0 0-23.44-23.438z" class="prefix__cls-9" data-name="Path 2311" transform="translate(-1696.369 -844.111)"/> <path id="prefix__Path_2312" d="M2732.535 1696.9h-178.99a23.438 23.438 0 0 0-23.437 23.438v103.3h225.865v-103.3a23.438 23.438 0 0 0-23.438-23.438z" class="prefix__cls-9" data-name="Path 2312" transform="translate(-1588.858 -844.111)"/> <path id="prefix__Path_2313" d="M2923.666 1696.9h-178.989a23.438 23.438 0 0 0-23.437 23.438v103.3h225.86v-103.3a23.438 23.438 0 0 0-23.434-23.438z" class="prefix__cls-9" data-name="Path 2313" transform="translate(-1481.347 -844.111)"/> <path id="prefix__Path_2314" d="M3114.8 1696.9h-178.992a23.438 23.438 0 0 0-23.437 23.438v103.3h225.864v-103.3a23.437 23.437 0 0 0-23.435-23.438z" class="prefix__cls-9" data-name="Path 2314" transform="translate(-1373.836 -844.111)"/> <path id="prefix__Path_2315" d="M2783.127 1543.517h-178.988a23.437 23.437 0 0 0-23.437 23.438v103.3h225.864v-103.3a23.437 23.437 0 0 0-23.439-23.438z" class="prefix__cls-9" data-name="Path 2315" transform="translate(-1560.399 -930.39)"/> <path id="prefix__Path_2316" d="M2974.26 1543.517h-178.99a23.437 23.437 0 0 0-23.437 23.438v103.3H2997.7v-103.3a23.437 23.437 0 0 0-23.44-23.438z" class="prefix__cls-9" data-name="Path 2316" transform="translate(-1452.888 -930.39)"/> <path id="prefix__Path_2317" d="M3165.389 1543.517H2986.4a23.436 23.436 0 0 0-23.437 23.438v103.3h225.863v-103.3a23.436 23.436 0 0 0-23.437-23.438z" class="prefix__cls-9" data-name="Path 2317" transform="translate(-1345.376 -930.39)"/> <path id="prefix__Path_2318" d="M2674.8 1584.678l-22.587-.133a11.293 11.293 0 1 1 .133-22.586l22.588.133a11.293 11.293 0 0 1-.133 22.586z" class="prefix__cls-7" data-name="Path 2318" transform="translate(-1526.487 -920.017)"/> <path id="prefix__Path_2319" d="M2746.845 1602.029l-99.131-.586a6.9 6.9 0 1 1 .083-13.8l99.129.586a6.9 6.9 0 1 1-.081 13.8z" class="prefix__cls-2" data-name="Path 2319" transform="translate(-1526.564 -905.571)"/> <path id="prefix__Path_2320" d="M2774.066 1617.549h-174.417a6.9 6.9 0 1 1 0-13.8h174.417a6.9 6.9 0 1 1 0 13.8z" class="prefix__cls-2" data-name="Path 2320" transform="translate(-1553.623 -896.511)"/> <path id="prefix__Path_2321" d="M2436.392 1739.9h-68.169a9.9 9.9 0 1 1 0-19.791h68.169a9.9 9.9 0 0 1 0 19.791z" class="prefix__cls-13" data-name="Path 2321" transform="translate(-1685.484 -831.056)"/> <path id="prefix__Path_2322" d="M2401.758 1754.723h-37.383a6.047 6.047 0 1 1 0-12.094h37.383a6.047 6.047 0 0 1 0 12.094z" class="prefix__cls-2" data-name="Path 2322" transform="translate(-1685.484 -818.39)"/> <path id="prefix__Path_2323" d="M2425.947 1768.8h-61.572a6.047 6.047 0 1 1 0-12.094h61.572a6.047 6.047 0 1 1 0 12.094z" class="prefix__cls-2" data-name="Path 2323" transform="translate(-1685.484 -810.474)"/> <path id="prefix__Path_2324" d="M2458.052 1754.723h-37.383a6.047 6.047 0 0 1 0-12.094h37.383a6.047 6.047 0 0 1 0 12.094z" class="prefix__cls-2" data-name="Path 2324" transform="translate(-1653.818 -818.39)"/> <path id="prefix__Path_2325" d="M2482.241 1768.8h-61.572a6.047 6.047 0 0 1 0-12.094h61.572a6.047 6.047 0 0 1 0 12.094z" class="prefix__cls-2" data-name="Path 2325" transform="translate(-1653.818 -810.474)"/> <path id="prefix__Path_2326" d="M2632.449 1739.567h-77.8a11.294 11.294 0 1 1 0-22.588h77.8a11.294 11.294 0 0 1 0 22.588z" class="prefix__cls-7" data-name="Path 2326" transform="translate(-1581.405 -832.818)"/> <path id="prefix__Path_2327" d="M2592.924 1756.481h-42.664a6.9 6.9 0 1 1 0-13.8h42.664a6.9 6.9 0 0 1 0 13.8z" class="prefix__cls-2" data-name="Path 2327" transform="translate(-1581.405 -818.362)"/> <path id="prefix__Path_2328" d="M2620.529 1772.542h-70.269a6.9 6.9 0 1 1 0-13.8h70.269a6.9 6.9 0 1 1 0 13.8z" class="prefix__cls-2" data-name="Path 2328" transform="translate(-1581.405 -809.327)"/> <path id="prefix__Path_2329" d="M2657.168 1756.481H2614.5a6.9 6.9 0 0 1 0-13.8h42.664a6.9 6.9 0 1 1 0 13.8z" class="prefix__cls-2" data-name="Path 2329" transform="translate(-1545.266 -818.362)"/> <path id="prefix__Path_2330" d="M2684.774 1772.542H2614.5a6.9 6.9 0 0 1 0-13.8h70.27a6.9 6.9 0 1 1 0 13.8z" class="prefix__cls-2" data-name="Path 2330" transform="translate(-1545.266 -809.327)"/> <path id="prefix__Path_2331" d="M2824.784 1739.567h-77.8a11.294 11.294 0 1 1 0-22.588h77.8a11.294 11.294 0 1 1 0 22.588z" class="prefix__cls-14" data-name="Path 2331" transform="translate(-1473.215 -832.818)"/> <path id="prefix__Path_2332" d="M2785.26 1756.481h-42.66a6.9 6.9 0 1 1 0-13.8h42.664a6.9 6.9 0 0 1 0 13.8z" class="prefix__cls-2" data-name="Path 2332" transform="translate(-1473.215 -818.362)"/> <path id="prefix__Path_2333" d="M2812.864 1772.542H2742.6a6.9 6.9 0 1 1 0-13.8h70.269a6.9 6.9 0 1 1 0 13.8z" class="prefix__cls-2" data-name="Path 2333" transform="translate(-1473.215 -809.327)"/> <path id="prefix__Path_2334" d="M2849.5 1756.481h-42.66a6.9 6.9 0 0 1 0-13.8h42.66a6.9 6.9 0 1 1 0 13.8z" class="prefix__cls-2" data-name="Path 2334" transform="translate(-1437.077 -818.362)"/> <path id="prefix__Path_2335" d="M2877.11 1772.542h-70.27a6.9 6.9 0 0 1 0-13.8h70.271a6.9 6.9 0 1 1 0 13.8z" class="prefix__cls-2" data-name="Path 2335" transform="translate(-1437.077 -809.327)"/> <path id="prefix__Path_2336" d="M3017.121 1739.567h-77.8a11.294 11.294 0 1 1 0-22.588h77.8a11.294 11.294 0 0 1 0 22.588z" class="prefix__cls-15" data-name="Path 2336" transform="translate(-1365.026 -832.818)"/> <path id="prefix__Path_2337" d="M2977.6 1756.481h-42.664a6.9 6.9 0 1 1 0-13.8h42.664a6.9 6.9 0 0 1 0 13.8z" class="prefix__cls-2" data-name="Path 2337" transform="translate(-1365.026 -818.362)"/> <path id="prefix__Path_2338" d="M3005.2 1772.542h-70.269a6.9 6.9 0 1 1 0-13.8h70.269a6.9 6.9 0 1 1 0 13.8z" class="prefix__cls-2" data-name="Path 2338" transform="translate(-1365.026 -809.327)"/> <path id="prefix__Path_2339" d="M3041.84 1756.481h-42.665a6.9 6.9 0 0 1 0-13.8h42.665a6.9 6.9 0 1 1 0 13.8z" class="prefix__cls-2" data-name="Path 2339" transform="translate(-1328.888 -818.362)"/> <path id="prefix__Path_2340" d="M3069.446 1772.542h-70.271a6.9 6.9 0 0 1 0-13.8h70.271a6.9 6.9 0 1 1 0 13.8z" class="prefix__cls-2" data-name="Path 2340" transform="translate(-1328.888 -809.327)"/> <circle id="prefix__Ellipse_316" cx="26.35" cy="26.35" r="26.35" class="prefix__cls-2" data-name="Ellipse 316" transform="translate(1041.634 641.986)"/> <path id="prefix__Path_2341" d="M2865.934 1584.678l-22.589-.133a11.293 11.293 0 0 1 .134-22.586l22.587.133a11.293 11.293 0 1 1-.133 22.586z" class="prefix__cls-14" data-name="Path 2341" transform="translate(-1418.977 -920.017)"/> <path id="prefix__Path_2342" d="M2937.976 1602.029l-99.13-.586a6.9 6.9 0 0 1 .08-13.8l99.133.586a6.9 6.9 0 0 1-.083 13.8z" class="prefix__cls-2" data-name="Path 2342" transform="translate(-1419.052 -905.571)"/> <path id="prefix__Path_2343" d="M2965.2 1617.549h-174.42a6.9 6.9 0 1 1 0-13.8h174.42a6.9 6.9 0 1 1 0 13.8z" class="prefix__cls-2" data-name="Path 2343" transform="translate(-1446.112 -896.511)"/> <path id="prefix__Path_2344" d="M2785.484 1588.337a26.352 26.352 0 1 1 26.352 26.352 26.351 26.351 0 0 1-26.352-26.352z" class="prefix__cls-2" data-name="Path 2344" transform="translate(-1445.209 -920.001)"/> <path id="prefix__Path_2345" d="M3057.065 1584.678l-22.587-.133a11.293 11.293 0 0 1 .132-22.586l22.588.133a11.293 11.293 0 0 1-.133 22.586z" class="prefix__cls-15" data-name="Path 2345" transform="translate(-1311.465 -920.017)"/> <path id="prefix__Path_2346" d="M3129.108 1602.029l-99.131-.586a6.9 6.9 0 1 1 .081-13.8l99.131.586a6.9 6.9 0 0 1-.082 13.8z" class="prefix__cls-2" data-name="Path 2346" transform="translate(-1311.54 -905.571)"/> <path id="prefix__Path_2347" d="M3156.327 1617.549h-174.415a6.9 6.9 0 1 1 0-13.8h174.416a6.9 6.9 0 1 1 0 13.8z" class="prefix__cls-2" data-name="Path 2347" transform="translate(-1338.6 -896.511)"/> <circle id="prefix__Ellipse_317" cx="26.35" cy="26.35" r="26.35" class="prefix__cls-2" data-name="Ellipse 317" transform="translate(1638.919 641.986)"/> </g> </g></svg>